<?xml version="1.0" encoding="UTF-8"?>
<svg id="Capa_1" data-name="Capa 1" xmlns="http://www.w3.org/2000/svg" version="1.1" viewBox="0 0 1080 1080">
  <defs>
    <style>
      .cls-1 {
        fill: #1d1d1b;
        stroke-width: 0px;
      }
    </style>
  </defs>
  <g>
    <path class="cls-1" d="M257.64,485.37c1.56-3.11,2.24-6.59,2.24-10.07v-69.71c0-10.59-8.61-19.17-19.2-19.13l-165.75.58c-10.19.04-18.43,8.3-18.43,18.49v71.01c0,9.41,7.63,17.04,17.04,17.04h117.13c12.15,0,22.01,9.85,22.01,22.01h0c0,12.15-9.85,22.01-22.01,22.01H60.32c-6.03,0-10.91,4.89-10.91,10.91v97.61c0,7.5,6.08,13.58,13.58,13.58h180.84c7.89,0,14.29-6.4,14.29-14.29v-85.62c0-4.81-3.9-8.7-8.7-8.7s-9.65-2.25-12.42-6.3c-2.23-3.25-3.58-8-1.75-14.77.43-1.6,1.24-3.07,2.24-4.39,3.42-4.5,11.5-17.46,3.77-31.34,0,0,10.79,2.24,16.39-8.93ZM95.55,472.29c-6.86,0-12.42-5.56-12.42-12.42v-37.8c0-6.86,5.56-12.42,12.42-12.42h125.82c6.86,0,12.42,5.56,12.42,12.42v37.8c0,6.86-5.56,12.42-12.42,12.42h-125.82ZM132.06,614.17l-6.81-2.43c-3.12-1.12-6.55-1.04-9.63.21l-42.9,17.44c-.49-1.37-.77-2.84-.77-4.38v-52.53c0-7.2,5.84-13.04,13.04-13.04h132.34c-19.99,41.27-59.64,70.25-72.06,78.62h-36.08l23.7-18.88c1.77-1.41,1.31-4.23-.83-4.99ZM234.85,572.47v52.53c0,7.2-5.84,13.04-13.04,13.04h-61.51c40.12-30.73,59.6-64.64,66.1-77.77,4.94,1.86,8.45,6.61,8.45,12.2Z"/>
    <path class="cls-1" d="M136.74,604.33l10.93,4.74c.97.42,2.09.24,2.88-.46l17.06-15.21c1.48-1.32.92-3.75-.99-4.28l-7.15-2.02c-.65-.18-1.35-.1-1.93.24l-21.07,12.16c-1.93,1.11-1.76,3.94.28,4.83Z"/>
    <path class="cls-1" d="M170.51,581.13h8.43c1.04,0,2.04-.41,2.78-1.14l6.25-6.15c.99-.97.3-2.65-1.08-2.65h-6.96c-1.15,0-2.25.47-3.05,1.29l-6.98,7.17c-.54.55-.15,1.48.62,1.48Z"/>
  </g>
  <g>
    <path class="cls-1" d="M331.01,546.12h53.05v18.1h-75.47v-97.47h73.66v18.1h-51.24v61.26ZM329.34,505.88h46.92v17.68h-46.92v-17.68Z"/>
    <path class="cls-1" d="M446.01,488.2c5.94,0,11.25,1.18,15.94,3.55,4.69,2.37,8.38,5.99,11.07,10.86,2.69,4.87,4.04,11.12,4.04,18.73v42.88h-21.72v-39.54c0-6.03-1.32-10.49-3.97-13.37-2.65-2.88-6.38-4.32-11.21-4.32-3.44,0-6.52.74-9.26,2.23-2.74,1.49-4.87,3.67-6.4,6.54-1.53,2.88-2.3,6.68-2.3,11.42v37.04h-21.72v-74.91h20.75v20.75l-3.9-6.27c2.69-5.01,6.54-8.86,11.56-11.56,5.01-2.69,10.72-4.04,17.13-4.04Z"/>
    <path class="cls-1" d="M517.16,564.22l-31.47-74.91h22.28l26.18,64.47h-11.14l27.29-64.47h20.75l-31.61,74.91h-22.28Z"/>
    <path class="cls-1" d="M590.82,478.87c-4.09,0-7.38-1.16-9.89-3.48-2.51-2.32-3.76-5.2-3.76-8.63s1.25-6.31,3.76-8.63c2.51-2.32,5.8-3.48,9.89-3.48s7.26,1.09,9.82,3.27c2.55,2.18,3.83,4.99,3.83,8.42,0,3.62-1.25,6.61-3.76,8.98-2.51,2.37-5.8,3.55-9.89,3.55ZM579.96,564.22v-74.91h21.72v74.91h-21.72Z"/>
    <path class="cls-1" d="M657.37,565.33c-7.89,0-14.92-1.67-21.09-5.01-6.17-3.34-11.02-7.91-14.55-13.71-3.53-5.8-5.29-12.41-5.29-19.84s1.76-14.18,5.29-19.98c3.53-5.8,8.38-10.35,14.55-13.65,6.17-3.29,13.2-4.94,21.09-4.94s15.08,1.65,21.3,4.94c6.22,3.3,11.09,7.85,14.62,13.65,3.53,5.8,5.29,12.46,5.29,19.98s-1.76,14.16-5.29,19.91c-3.53,5.76-8.4,10.3-14.62,13.65-6.22,3.34-13.32,5.01-21.3,5.01ZM657.37,547.51c3.71,0,6.98-.81,9.82-2.44,2.83-1.62,5.1-4.01,6.82-7.17,1.72-3.15,2.58-6.87,2.58-11.14s-.86-8.08-2.58-11.14c-1.72-3.06-3.99-5.41-6.82-7.03-2.83-1.62-6.06-2.44-9.68-2.44s-6.87.81-9.75,2.44c-2.88,1.62-5.18,3.97-6.89,7.03-1.72,3.06-2.58,6.78-2.58,11.14s.86,7.98,2.58,11.14c1.72,3.16,4.01,5.55,6.89,7.17,2.88,1.63,6.08,2.44,9.61,2.44Z"/>
    <path class="cls-1" d="M784.22,560.6c-6.78,0-13-1.51-18.66-4.53-5.66-3.02-10.16-7.24-13.51-12.67-3.34-5.43-5.01-11.77-5.01-19.01s1.67-13.71,5.01-19.15,7.84-9.63,13.51-12.6c5.66-2.97,11.88-4.46,18.66-4.46s12.13,1.28,16.92,3.83c4.78,2.55,8.51,6.52,11.21,11.9,2.69,5.38,4.04,12.21,4.04,20.47s-1.35,15.06-4.04,20.4c-2.69,5.34-6.43,9.31-11.21,11.91-4.78,2.6-10.42,3.9-16.92,3.9ZM787.7,592.34c-7.06,0-13.85-.86-20.4-2.58-6.54-1.72-12-4.29-16.36-7.73l8.63-15.73c3.25,2.69,7.26,4.8,12.04,6.33,4.78,1.53,9.63,2.3,14.55,2.3,7.61,0,13.18-1.72,16.71-5.15,3.53-3.44,5.29-8.54,5.29-15.32v-11.14l1.39-18.94-.42-19.08v-16.01h20.61v62.38c0,13.83-3.62,24.06-10.86,30.7-7.24,6.64-17.64,9.96-31.19,9.96ZM788.67,542.92c3.8,0,7.19-.79,10.16-2.37,2.97-1.58,5.29-3.76,6.96-6.54s2.51-5.99,2.51-9.61-.84-6.94-2.51-9.68c-1.67-2.74-3.99-4.85-6.96-6.34-2.97-1.48-6.36-2.23-10.16-2.23s-7.08.74-10.09,2.23c-3.02,1.49-5.38,3.6-7.1,6.34-1.72,2.74-2.58,5.97-2.58,9.68s.86,6.82,2.58,9.61c1.72,2.78,4.08,4.97,7.1,6.54,3.02,1.58,6.38,2.37,10.09,2.37Z"/>
    <path class="cls-1" d="M885.44,565.33c-7.89,0-14.92-1.67-21.09-5.01-6.17-3.34-11.02-7.91-14.55-13.71-3.53-5.8-5.29-12.41-5.29-19.84s1.76-14.18,5.29-19.98c3.53-5.8,8.38-10.35,14.55-13.65,6.17-3.29,13.2-4.94,21.09-4.94s15.08,1.65,21.3,4.94c6.22,3.3,11.09,7.85,14.62,13.65,3.53,5.8,5.29,12.46,5.29,19.98s-1.76,14.16-5.29,19.91c-3.53,5.76-8.4,10.3-14.62,13.65-6.22,3.34-13.32,5.01-21.3,5.01ZM885.44,547.51c3.71,0,6.98-.81,9.82-2.44,2.83-1.62,5.1-4.01,6.82-7.17,1.72-3.15,2.58-6.87,2.58-11.14s-.86-8.08-2.58-11.14c-1.72-3.06-3.99-5.41-6.82-7.03-2.83-1.62-6.06-2.44-9.68-2.44s-6.87.81-9.75,2.44c-2.88,1.62-5.18,3.97-6.89,7.03-1.72,3.06-2.58,6.78-2.58,11.14s.86,7.98,2.58,11.14c1.72,3.16,4.01,5.55,6.89,7.17,2.88,1.63,6.08,2.44,9.61,2.44Z"/>
    <path class="cls-1" d="M972.74,565.33c-6.31,0-11.88-1.21-16.71-3.62-4.83-2.41-8.59-6.13-11.28-11.14-2.69-5.01-4.04-11.32-4.04-18.94v-42.33h21.72v38.99c0,6.31,1.32,10.93,3.97,13.85s6.38,4.39,11.21,4.39c3.34,0,6.31-.74,8.91-2.23,2.6-1.48,4.67-3.71,6.2-6.68,1.53-2.97,2.3-6.68,2.3-11.14v-37.18h21.58v74.91h-20.61v-20.75l3.76,6.13c-2.6,5.2-6.31,9.12-11.14,11.77-4.83,2.65-10.12,3.97-15.87,3.97Z"/>
  </g>
</svg>